<svg width="596" height="283" viewBox="0 0 596 283" fill="none" xmlns="http://www.w3.org/2000/svg">
<path d="M96.6864 32.9339C104.896 21.9871 121.773 18.7944 134.544 25.1799C144.059 29.9375 162.367 58.4761 162.367 58.4761C162.367 58.4761 153.998 49.3541 165.104 32.9339C174.358 19.2504 188.366 21.9871 191.102 21.9871C198.859 21.9871 204.784 31.1094 204.784 31.1094C204.784 31.1094 207.068 25.1799 216.645 25.1799C224.802 25.1799 233.975 37.495 233.975 37.495C233.975 37.495 238.005 29.4177 242.641 26.5483C252.222 20.6188 267.274 14.6892 281.413 15.6014C295.553 16.5136 313.395 28.2275 321.549 46.1612C328.393 61.2131 308.015 99.458 326.569 123.245C347.84 150.515 415.967 130.087 415.967 130.087C415.967 130.087 415.967 106.825 438.317 104.088C458.386 101.631 460.141 122.239 460.141 122.239C460.141 122.239 471.088 110.836 487.508 113.573C510.031 117.327 513.507 139.572 513.507 139.572C513.507 139.572 531.89 129.993 564.205 141.396C596.52 152.799 613.396 213.006 564.205 234.081C528.056 249.568 504.91 219.029 504.91 219.029C504.91 219.029 498.524 230.087 482.104 229.064C465.684 228.04 458.386 219.941 458.386 219.941C458.386 219.941 456.106 229.444 438.773 230.888C420.073 232.446 415.967 219.941 415.967 219.941C415.967 219.941 404.068 234.569 383.127 235.905C361.692 237.274 345.27 227.239 345.27 227.239C345.27 227.239 335.237 241.29 313.341 243.659C287.345 246.473 284.604 234.081 284.604 234.081C284.604 234.081 284.15 246.396 273.659 253.238C263.169 260.08 236.712 254.15 236.712 254.15C236.712 254.15 223.049 270.013 207.979 272.851C193.273 275.62 165.102 268.29 165.102 268.29C165.102 268.29 153.216 275.277 144.579 276.956C132.133 279.375 111.736 274.219 111.736 274.219C111.736 274.219 106.258 276.493 102.616 276.956C98.7277 277.451 92.5793 276.5 92.5793 276.5C92.5793 276.5 80.9327 282.121 72.9684 282.885C64.7633 283.673 51.985 280.149 51.985 280.149C51.985 280.149 35.5658 273.587 26.4448 263.272C17.3238 252.958 16.8662 239.554 16.8662 239.554C16.8662 239.554 15.6642 222.727 23.2502 210.363C30.8862 197.917 46.0555 195.767 46.0555 195.767C46.0555 195.767 48.0172 176.235 53.8095 165.663C59.4771 155.319 74.7908 142.858 74.7908 142.858C74.7908 142.858 60.2275 136.016 58.8288 125.525C57.0043 111.842 74.1421 97.5614 82.0907 76.7211C90.1132 55.6869 91.268 40.1584 96.6864 32.9339Z" fill="#F4A9C2"/>
<path d="M80.2662 17.4258C88.4763 6.47905 105.353 3.28629 118.124 9.67185C127.639 14.4294 145.947 42.9681 145.947 42.9681C145.947 42.9681 139.896 47.0733 151.001 30.6532C160.256 16.9697 174.263 19.7064 177 19.7064C184.757 19.7064 189.5 25.5 189.5 25.5C189.5 25.5 192.924 17.4258 202.5 17.4258C210.657 17.4258 217.5 23.3553 217.5 23.3553C217.5 23.3553 221.585 13.9097 226.221 11.0402C235.802 5.1107 250.854 -0.818847 264.993 0.0933523C279.133 1.00555 296.975 12.7195 305.129 30.6532C311.973 45.705 291.595 83.9499 310.149 107.736C331.42 135.007 399.547 114.579 399.547 114.579C399.547 114.579 399.547 91.3166 421.897 88.5799C441.966 86.1225 443.721 106.731 443.721 106.731C443.721 106.731 454.668 95.3282 471.088 98.0649C493.611 101.819 497.087 124.063 497.087 124.063C497.087 124.063 515.47 114.485 547.785 125.888C580.1 137.291 599.713 199.323 547.785 218.573C510.91 232.242 488.49 203.521 488.49 203.521C488.49 203.521 482.104 214.579 465.684 213.556C449.264 212.532 441.966 204.433 441.966 204.433C441.966 204.433 439.685 213.936 422.353 215.38C403.652 216.938 399.547 204.433 399.547 204.433C399.547 204.433 387.648 219.061 366.707 220.397C345.272 221.766 328.849 211.731 328.849 211.731C328.849 211.731 318.817 225.782 296.921 228.151C270.925 230.965 268.184 218.573 268.184 218.573C268.184 218.573 267.73 230.888 257.239 237.73C246.749 244.572 221 242 221 242C221 242 206.629 254.505 191.558 257.343C176.852 260.112 148.682 252.782 148.682 252.782C148.682 252.782 136.795 259.769 128.158 261.448C115.713 263.867 95.316 258.711 95.316 258.711C95.316 258.711 89.8377 260.984 86.1957 261.448C82.3075 261.942 76.1591 260.992 76.1591 260.992C76.1591 260.992 64.5125 266.613 56.5482 267.377C48.3432 268.165 35.5648 264.641 35.5648 264.641C35.5648 264.641 19.1456 258.079 10.0246 247.764C0.903649 237.45 0.44607 224.046 0.44607 224.046C0.44607 224.046 -0.755923 207.219 6.83003 194.855C14.4661 182.409 29.6353 180.259 29.6353 180.259C29.6353 180.259 31.597 160.727 37.3893 150.155C43.057 139.811 58.3706 127.349 58.3706 127.349C58.3706 127.349 43.8074 120.508 42.4086 110.017C40.5841 96.334 57.722 82.0533 65.6705 61.213C73.693 40.1788 74.8479 24.6503 80.2662 17.4258Z" fill="white"/>
<path d="M76.1445 117.79C78.2109 118.548 80.5253 117.864 81.7703 116.049C84.6025 111.92 89.6045 104.094 92.8294 96.0091C97.5383 84.2039 104.629 58.8063 104.629 58.8063L116.998 77.0038C117.77 78.1398 117.192 79.6875 115.853 79.9949C113.67 80.4962 110.598 81.1139 108.279 81.2312C104.265 81.4342 98.0962 80.3604 98.0962 80.3604L92.8294 96.0091C92.8294 96.0091 101.854 96.9776 107.671 96.5177C111.884 96.1846 117.808 94.8273 120.658 94.1298C121.617 93.8951 122.608 94.3793 123.003 95.284L130.022 111.387C131.116 113.897 134.026 115.06 136.548 113.996L152.83 107.131C155.195 106.134 156.422 103.523 155.631 101.081C152.828 92.4297 146.135 72.6184 139.585 59.5631C133.396 47.2294 122.381 31.0539 117.076 23.4831C115.221 20.8358 112.073 19.4471 108.859 19.7993L94.7953 21.341C91.101 21.746 88.0372 24.369 87.0269 27.9455C84.5283 36.7907 79.5393 53.6869 74.649 65.7634C69.6039 78.2223 60.5334 95.7515 56.0051 104.305C54.5769 107.003 55.8515 110.346 58.7174 111.397L76.1445 117.79Z" fill="#282828"/>
<mask id="mask0_90_396" style="mask-type:alpha" maskUnits="userSpaceOnUse" x="55" y="19" width="101" height="100">
<path d="M76.1445 117.79C78.2109 118.548 80.5253 117.864 81.7703 116.049C84.6025 111.92 89.6045 104.094 92.8294 96.0091C97.5383 84.2039 104.629 58.8063 104.629 58.8063L116.998 77.0038C117.77 78.1398 117.192 79.6875 115.853 79.9949C113.67 80.4962 110.598 81.1139 108.279 81.2312C104.265 81.4342 98.0962 80.3604 98.0962 80.3604L92.8294 96.0091C92.8294 96.0091 101.854 96.9776 107.671 96.5177C111.884 96.1846 117.808 94.8273 120.658 94.1298C121.617 93.8951 122.608 94.3793 123.003 95.284L130.022 111.387C131.116 113.897 134.026 115.06 136.548 113.996L152.83 107.131C155.195 106.134 156.422 103.523 155.631 101.081C152.828 92.4297 146.135 72.6184 139.585 59.5631C133.396 47.2294 122.381 31.0539 117.076 23.4831C115.221 20.8358 112.073 19.4471 108.859 19.7993L94.7953 21.341C91.101 21.746 88.0372 24.369 87.0269 27.9455C84.5283 36.7907 79.5393 53.6869 74.649 65.7634C69.6039 78.2223 60.5334 95.7515 56.0051 104.305C54.5769 107.003 55.8515 110.346 58.7174 111.397L76.1445 117.79Z" fill="#282828"/>
</mask>
<g mask="url(#mask0_90_396)">
<rect x="37.7775" y="77.5398" width="62.0317" height="62.0317" rx="19" fill="#3C3835"/>
<rect x="99.8093" y="7.29785" width="62.0317" height="62.0317" rx="19" fill="#3C3835"/>
<rect x="130.825" y="77.5398" width="62.0317" height="62.0317" rx="19" fill="#3C3835"/>
</g>
<path d="M161.419 57.9349C160.223 54.9676 161.111 51.5503 163.805 49.8245C167.713 47.3207 173.636 44.0077 179.301 42.7228C185.632 41.2868 197.767 41.9087 202.152 42.1971C203.2 42.266 204.158 42.7797 204.584 43.7389C205.25 45.2354 206.156 48.0656 206.581 52.9368C206.891 56.4881 206.628 59.423 206.245 61.5791C205.84 63.8586 203.377 64.7533 201.145 64.1398C199.926 63.8048 198.616 63.5978 197.514 63.7759C194.843 64.2071 192.756 65.0578 191.942 67.5585C190.247 72.7613 191.585 80.3272 193.181 88.5231C194.309 94.3177 197.036 102.082 198.648 106.415C199.291 108.142 198.278 110.059 196.481 110.469L176.738 114.973C174.898 115.392 173.125 114.037 173.031 112.152C172.713 105.757 171.841 92.2952 169.829 83.1297C168.036 74.9624 163.93 64.163 161.419 57.9349Z" fill="#282828"/>
<mask id="mask1_90_396" style="mask-type:alpha" maskUnits="userSpaceOnUse" x="160" y="41" width="47" height="75">
<path d="M161.419 57.9349C160.223 54.9676 161.111 51.5503 163.805 49.8245C167.713 47.3207 173.636 44.0077 179.301 42.7228C185.632 41.2868 197.767 41.9087 202.152 42.1971C203.2 42.266 204.158 42.7797 204.584 43.7389C205.25 45.2354 206.156 48.0656 206.581 52.9368C206.891 56.4881 206.628 59.423 206.245 61.5791C205.84 63.8586 203.377 64.7533 201.145 64.1398C199.926 63.8048 198.616 63.5978 197.514 63.7759C194.843 64.2071 192.756 65.0578 191.942 67.5585C190.247 72.7613 191.585 80.3272 193.181 88.5231C194.309 94.3177 197.036 102.082 198.648 106.415C199.291 108.142 198.278 110.059 196.481 110.469L176.738 114.973C174.898 115.392 173.125 114.037 173.031 112.152C172.713 105.757 171.841 92.2952 169.829 83.1297C168.036 74.9624 163.93 64.163 161.419 57.9349Z" fill="#282828"/>
</mask>
<g mask="url(#mask1_90_396)">
<rect x="130.825" y="77.5398" width="62.0317" height="62.0317" rx="19" fill="#3C3835"/>
</g>
<path d="M243.336 22.0016C243.465 20.4466 244.765 19.2505 246.325 19.2505H260.541C262.298 19.2505 263.679 20.7541 263.53 22.5051L261.105 50.9825C260.961 52.6655 262.235 54.1351 263.922 54.2321L273.903 54.8063C276.197 54.9383 277.908 56.9717 277.647 59.2548L276.84 66.3045C276.589 68.4926 274.617 70.0665 272.428 69.8253L263.178 68.8062C261.518 68.6233 260.029 69.8303 259.872 71.4926C259.237 78.1961 257.783 94.2213 257.783 100.439C257.783 103.72 261.89 107.043 264.551 108.852C265.793 109.696 266.368 111.284 265.827 112.685L261.354 124.259C260.783 125.739 259.163 126.512 257.681 125.943C254.334 124.659 248.588 122.154 245.028 118.939C239.489 113.935 238.553 112.561 237.346 105.267C236.182 98.2367 238.146 79.5465 239.041 71.8541C239.251 70.0572 237.849 68.474 236.04 68.474H228.532C226.106 68.474 224.238 66.3313 224.57 63.9277L225.806 54.9605C226.079 52.9812 227.77 51.5068 229.768 51.5068H238.279C239.862 51.5068 241.173 50.2762 241.273 48.6959L241.775 40.7547L243.336 22.0016Z" fill="#282828"/>
<mask id="mask2_90_396" style="mask-type:alpha" maskUnits="userSpaceOnUse" x="224" y="19" width="54" height="108">
<path d="M243.336 22.0016C243.465 20.4466 244.765 19.2505 246.325 19.2505H260.541C262.298 19.2505 263.679 20.7541 263.53 22.5051L261.105 50.9825C260.961 52.6655 262.235 54.1351 263.922 54.2321L273.903 54.8063C276.197 54.9383 277.908 56.9717 277.647 59.2548L276.84 66.3045C276.589 68.4926 274.617 70.0665 272.428 69.8253L263.178 68.8062C261.518 68.6233 260.029 69.8303 259.872 71.4926C259.237 78.1961 257.783 94.2213 257.783 100.439C257.783 103.72 261.89 107.043 264.551 108.852C265.793 109.696 266.368 111.284 265.827 112.685L261.354 124.259C260.783 125.739 259.163 126.512 257.681 125.943C254.334 124.659 248.588 122.154 245.028 118.939C239.489 113.935 238.553 112.561 237.346 105.267C236.182 98.2367 238.146 79.5465 239.041 71.8541C239.251 70.0572 237.849 68.474 236.04 68.474H228.532C226.106 68.474 224.238 66.3313 224.57 63.9277L225.806 54.9605C226.079 52.9812 227.77 51.5068 229.768 51.5068H238.279C239.862 51.5068 241.173 50.2762 241.273 48.6959L241.775 40.7547L243.336 22.0016Z" fill="#282828"/>
</mask>
<g mask="url(#mask2_90_396)">
<rect x="210.19" y="7.29785" width="62.0317" height="62.0317" rx="19" fill="#3C3835"/>
<rect x="207.453" y="87.5742" width="62.0317" height="62.0317" rx="19" fill="#3C3835"/>
</g>
<path d="M284.791 215.335C285.008 216.88 286.373 218.001 287.931 217.913L302.124 217.112C303.879 217.013 305.173 215.434 304.925 213.694L300.899 185.399C300.661 183.727 301.851 182.188 303.529 181.996L313.462 180.86C315.745 180.599 317.339 178.473 316.949 176.208L315.746 169.215C315.373 167.044 313.315 165.584 311.143 165.948L301.965 167.487C300.318 167.763 298.764 166.642 298.513 164.991C297.501 158.334 295.148 142.416 294.797 136.208C294.612 132.932 298.525 129.383 301.08 127.427C302.273 126.514 302.757 124.896 302.138 123.528L297.021 112.224C296.367 110.779 294.706 110.099 293.259 110.75C289.989 112.221 284.393 115.045 281.02 118.456C275.772 123.764 274.915 125.189 274.12 132.539C273.355 139.624 276.368 158.174 277.695 165.803C278.005 167.585 276.695 169.245 274.889 169.347L267.393 169.77C264.971 169.907 263.227 172.151 263.693 174.532L265.432 183.416C265.816 185.376 267.588 186.753 269.583 186.641L278.08 186.161C279.661 186.072 281.039 187.227 281.228 188.799L282.176 196.699L284.791 215.335Z" fill="#EB7396"/>
<mask id="mask3_90_396" style="mask-type:alpha" maskUnits="userSpaceOnUse" x="263" y="110" width="55" height="108">
<path d="M284.792 215.335C285.008 216.88 286.374 218.001 287.932 217.913L302.125 217.112C303.879 217.013 305.173 215.434 304.926 213.694L300.9 185.399C300.662 183.727 301.851 182.188 303.529 181.996L313.462 180.86C315.745 180.599 317.34 178.473 316.95 176.208L315.747 169.215C315.373 167.044 313.315 165.584 311.143 165.948L301.965 167.487C300.319 167.763 298.764 166.642 298.514 164.991C297.502 158.334 295.148 142.416 294.798 136.208C294.613 132.932 298.525 129.383 301.081 127.427C302.273 126.514 302.758 124.896 302.139 123.528L297.021 112.224C296.367 110.779 294.706 110.099 293.259 110.75C289.99 112.221 284.394 115.045 281.021 118.456C275.773 123.764 274.915 125.189 274.121 132.539C273.355 139.624 276.368 158.174 277.696 165.803C278.006 167.585 276.695 169.245 274.889 169.347L267.394 169.77C264.971 169.907 263.227 172.151 263.694 174.532L265.433 183.416C265.817 185.376 267.589 186.753 269.584 186.641L278.081 186.161C279.662 186.072 281.04 187.227 281.228 188.799L282.177 196.699L284.792 215.335Z" fill="#EB7396"/>
</mask>
<g mask="url(#mask3_90_396)">
<path d="M285.271 150.697L281.985 157.903L259.187 147.51L261.775 141.832L276.663 135.325L267.142 130.985L270.427 123.778L292.396 133.794L289.808 139.471L274.92 145.978L285.271 150.697Z" fill="#F5ABC4"/>
<path d="M307.164 196.308L303.879 203.515L281.08 193.121L283.669 187.443L298.557 180.937L289.036 176.596L292.321 169.39L314.29 179.405L311.701 185.083L296.813 191.589L307.164 196.308Z" fill="#F5ABC4"/>
</g>
<path d="M563.293 173.417C563.293 193.318 545.336 208.082 525.435 208.082C500.349 208.082 488.49 193.318 488.49 173.417C488.49 153.517 505.535 138.753 525.435 138.753C545.336 138.753 563.293 153.517 563.293 173.417Z" fill="#EB7396"/>
<path d="M538.206 173.418C538.206 182.54 533.189 187.101 526.803 187.101C516.769 187.101 514.032 178.655 514.032 173.418C514.032 166.12 520.552 160.19 525.891 160.19C534.101 160.19 538.206 168.181 538.206 173.418Z" fill="white"/>
<mask id="mask4_90_396" style="mask-type:alpha" maskUnits="userSpaceOnUse" x="488" y="138" width="76" height="71">
<path d="M563.293 173.417C563.293 193.318 545.336 208.082 525.435 208.082C500.349 208.082 488.49 193.318 488.49 173.417C488.49 153.517 505.535 138.753 525.435 138.753C545.336 138.753 563.293 153.517 563.293 173.417Z" fill="#EB7396"/>
<path d="M538.206 173.418C538.206 182.54 533.189 187.101 526.804 187.101C516.769 187.101 514.032 178.655 514.032 173.418C514.032 166.12 520.552 160.19 525.891 160.19C534.101 160.19 538.206 168.181 538.206 173.418Z" fill="white"/>
</mask>
<g mask="url(#mask4_90_396)">
<path d="M507.854 199.045L504.569 206.251L481.77 195.858L484.359 190.18L499.247 183.674L489.725 179.333L493.011 172.126L514.98 182.142L512.391 187.819L497.503 194.326L507.854 199.045Z" fill="#F5ABC4"/>
<path d="M531.572 154.346L528.287 161.552L505.488 151.159L508.077 145.481L522.965 138.974L513.444 134.634L516.729 127.427L538.698 137.442L536.109 143.12L521.221 149.627L531.572 154.346Z" fill="#F5ABC4"/>
<path d="M560.764 195.396L557.479 202.602L534.68 192.209L537.269 186.531L552.157 180.025L542.635 175.684L545.921 168.478L567.89 178.493L565.301 184.171L550.413 190.677L560.764 195.396Z" fill="#F5ABC4"/>
</g>
<path d="M453.301 144.379C453.462 142.964 454.596 141.869 456.016 141.766C460.581 141.436 470.639 140.805 478.033 141.049C478.576 141.067 479.114 141.223 479.413 141.677C480.009 142.582 480.876 144.777 480.917 149.915C480.98 157.785 480.844 164.197 480.844 164.197L477.979 204.491C477.864 206.11 476.482 207.344 474.86 207.275L453.214 206.364C451.63 206.297 450.372 205.019 450.351 203.434C450.272 197.515 450.156 183.51 450.647 173.746C451.139 163.973 452.667 149.958 453.301 144.379Z" fill="#EB7396"/>
<path d="M479.368 118.916C479.368 127.883 473.877 132.367 466.889 132.367C455.908 132.367 452.913 124.064 452.913 118.916C452.913 111.741 460.048 105.912 465.891 105.912C474.876 105.912 479.368 113.767 479.368 118.916Z" fill="#EB7396"/>
<mask id="mask5_90_396" style="mask-type:alpha" maskUnits="userSpaceOnUse" x="450" y="105" width="31" height="103">
<path d="M453.301 144.379C453.462 142.964 454.596 141.869 456.016 141.766C460.581 141.436 470.639 140.805 478.033 141.049C478.576 141.067 479.114 141.223 479.413 141.677C480.009 142.582 480.876 144.777 480.917 149.915C480.98 157.785 480.844 164.197 480.844 164.197L477.979 204.491C477.864 206.11 476.482 207.344 474.86 207.275L453.214 206.364C451.63 206.297 450.372 205.019 450.351 203.434C450.272 197.515 450.156 183.51 450.647 173.746C451.139 163.973 452.667 149.958 453.301 144.379Z" fill="#EB7396"/>
<path d="M479.368 118.916C479.368 127.883 473.877 132.367 466.889 132.367C455.908 132.367 452.913 124.064 452.913 118.916C452.913 111.741 460.048 105.912 465.891 105.912C474.876 105.912 479.368 113.767 479.368 118.916Z" fill="#EB7396"/>
</mask>
<g mask="url(#mask5_90_396)">
<path d="M471.366 200.869L468.08 208.076L445.282 197.682L447.87 192.004L462.758 185.498L453.237 181.157L456.522 173.951L478.491 183.966L475.903 189.644L461.015 196.15L471.366 200.869Z" fill="#F5ABC4"/>
<path d="M475.927 147.96L472.642 155.166L449.843 144.773L452.431 139.095L467.32 132.589L457.798 128.248L461.084 121.042L483.052 131.057L480.464 136.735L465.576 143.241L475.927 147.96Z" fill="#F5ABC4"/>
</g>
<path d="M412.587 104.019C412.756 102.5 414.04 101.351 415.568 101.351H429.861C431.618 101.351 432.999 102.855 432.85 104.606L430.163 136.148C430.163 136.153 430.163 136.151 430.163 136.156C430.148 136.335 427.103 174.603 427.103 182.54C427.103 185.821 431.209 189.144 433.871 190.953C435.113 191.797 435.688 193.385 435.146 194.786L430.674 206.36C430.102 207.84 428.482 208.613 427.001 208.044C423.654 206.76 417.908 204.255 414.348 201.039C408.809 196.036 407.873 194.662 406.666 187.368C405.192 178.465 410.085 126.53 410.137 125.986C410.138 125.969 410.138 125.973 410.14 125.956L412.587 104.019Z" fill="#EB7396"/>
<mask id="mask6_90_396" style="mask-type:alpha" maskUnits="userSpaceOnUse" x="406" y="101" width="30" height="108">
<path d="M412.587 104.019C412.756 102.5 414.04 101.351 415.568 101.351H429.861C431.618 101.351 432.999 102.855 432.85 104.606L430.164 136.148C430.163 136.153 430.163 136.151 430.163 136.156C430.149 136.335 427.103 174.603 427.103 182.54C427.103 185.821 431.209 189.144 433.871 190.953C435.113 191.797 435.688 193.385 435.146 194.786L430.674 206.36C430.102 207.84 428.482 208.613 427.001 208.044C423.654 206.76 417.908 204.255 414.348 201.039C408.809 196.036 407.873 194.662 406.666 187.368C405.192 178.465 410.085 126.53 410.137 125.986C410.138 125.969 410.138 125.973 410.14 125.956L412.587 104.019Z" fill="#EB7396"/>
</mask>
<g mask="url(#mask6_90_396)">
<path d="M428.491 210.904L425.205 218.11L402.407 207.717L404.995 202.039L419.883 195.533L410.362 191.192L413.647 183.986L435.616 194.001L433.028 199.679L418.14 206.185L428.491 210.904Z" fill="#F5ABC4"/>
<path d="M419.368 165.292L416.083 172.499L393.284 162.105L395.873 156.427L410.761 149.921L401.24 145.581L404.525 138.374L426.494 148.389L423.905 154.067L409.017 160.573L419.368 165.292Z" fill="#F5ABC4"/>
<path d="M442.174 131.54L438.888 138.746L416.09 128.353L418.678 122.675L433.566 116.169L424.045 111.828L427.33 104.622L449.299 114.637L446.711 120.315L431.822 126.821L442.174 131.54Z" fill="#F5ABC4"/>
</g>
<path d="M399.091 169.769C399.091 189.669 381.134 204.433 361.234 204.433C336.147 204.433 324.288 189.669 324.288 169.769C324.288 149.868 341.333 135.104 361.234 135.104C381.134 135.104 399.091 149.868 399.091 169.769Z" fill="#EB7396"/>
<path d="M374.005 169.769C374.005 178.891 368.988 183.452 362.602 183.452C352.568 183.452 349.831 175.006 349.831 169.769C349.831 162.471 356.351 156.541 361.69 156.541C369.9 156.541 374.005 164.532 374.005 169.769Z" fill="white"/>
<mask id="mask7_90_396" style="mask-type:alpha" maskUnits="userSpaceOnUse" x="324" y="135" width="76" height="70">
<path d="M399.091 169.769C399.091 189.669 381.134 204.433 361.234 204.433C336.147 204.433 324.288 189.669 324.288 169.769C324.288 149.868 341.333 135.104 361.234 135.104C381.134 135.104 399.091 149.868 399.091 169.769Z" fill="#EB7396"/>
<path d="M374.005 169.769C374.005 178.891 368.988 183.452 362.602 183.452C352.568 183.452 349.831 175.006 349.831 169.769C349.831 162.471 356.351 156.541 361.69 156.541C369.9 156.541 374.005 164.532 374.005 169.769Z" fill="white"/>
</mask>
<g mask="url(#mask7_90_396)">
<path d="M322.078 179.053C319.428 177.845 317.279 176.233 315.632 174.216C314.026 172.182 313.052 169.962 312.707 167.554C312.376 165.118 312.755 162.705 313.843 160.318C314.932 157.93 316.498 156.077 318.541 154.757C320.598 153.409 322.913 152.689 325.487 152.596C328.091 152.517 330.717 153.081 333.367 154.289C336.046 155.51 338.195 157.123 339.813 159.127C341.461 161.144 342.436 163.364 342.737 165.788C343.082 168.196 342.71 170.593 341.621 172.981C340.533 175.369 338.96 177.237 336.904 178.585C334.889 179.918 332.574 180.638 329.957 180.746C327.383 180.839 324.756 180.274 322.078 179.053ZM325.582 171.366C326.717 171.884 327.835 171.901 328.935 171.418C330.048 170.905 330.942 169.906 331.619 168.421C332.296 166.936 332.457 165.62 332.1 164.473C331.744 163.326 330.998 162.494 329.863 161.976C328.727 161.458 327.61 161.441 326.51 161.925C325.41 162.408 324.522 163.392 323.845 164.877C323.168 166.362 323.001 167.693 323.344 168.869C323.7 170.016 324.446 170.849 325.582 171.366Z" fill="#F5ABC4"/>
<path d="M382.637 197.778L362.137 217.288L351.917 212.629L353.2 184.358L363.332 188.977L362.303 203.964L373.29 193.517L382.637 197.778Z" fill="#F5ABC4"/>
<path d="M380.557 154.79L377.271 161.996L354.473 151.603L357.061 145.925L371.949 139.419L362.428 135.078L365.713 127.872L387.682 137.887L385.094 143.565L370.206 150.071L380.557 154.79Z" fill="#F5ABC4"/>
</g>
<path d="M148.225 207.323L160.725 193.823L167.725 205.823L162.225 222.323L150.225 231.323L139.225 224.323L148.225 207.323Z" fill="#EB7396"/>
<path d="M90.6381 228.738C90.638 228.738 90.6387 228.736 90.6401 228.734C90.6388 228.736 90.6381 228.738 90.6381 228.738ZM90.7256 228.636C90.8168 228.543 90.9927 228.388 91.3121 228.176C92.1441 227.621 93.4867 226.999 95.3307 226.368C98.9847 225.118 104.095 224.006 109.69 223.237C115.271 222.47 121.231 222.06 126.562 222.174C131.966 222.289 136.451 222.941 139.251 224.125C144.832 226.486 149.904 230.743 149.235 238.096C149.204 238.438 148.943 239.109 147.684 240.017C146.452 240.905 144.588 241.775 142.146 242.56C137.286 244.123 130.694 245.18 123.807 245.641C116.934 246.101 109.919 245.959 104.245 245.197C101.404 244.815 98.9709 244.287 97.0881 243.637C95.1312 242.96 94.0859 242.257 93.6544 241.733C92.6049 240.459 91.8282 238.353 91.3424 235.754C90.8909 233.339 90.7389 230.772 90.7256 228.636Z" fill="#EB7396" stroke="#F5ABC4" stroke-width="5"/>
<path d="M90.2531 230.182C89.7247 228.855 88.4041 227.299 86.2221 225.706C84.0829 224.143 81.3228 222.695 78.2599 221.506C72.0721 219.105 65.1081 217.933 60.1429 218.684C55.6707 219.361 50.7114 221.722 49.0751 228.424C48.9848 228.794 49.0156 229.409 49.6125 230.392C50.215 231.383 51.271 232.528 52.7938 233.763C55.829 236.223 60.2788 238.684 65.1475 240.715C70.0027 242.741 75.1153 244.274 79.4069 244.955C81.5558 245.297 83.4206 245.412 84.9045 245.302C86.442 245.188 87.2868 244.852 87.6713 244.561C87.8924 244.393 88.3795 243.778 88.9172 242.432C89.4167 241.182 89.8396 239.608 90.1376 237.941C90.4346 236.279 90.594 234.599 90.5987 233.155C90.6037 231.639 90.4355 230.64 90.2531 230.182Z" fill="#EB7396" stroke="#F5ABC4" stroke-width="5"/>
<path d="M57.0776 208.544C55.6132 208.667 53.7502 208.849 51.8324 209.1C49.7199 209.377 47.4692 209.748 45.5934 210.24C44.6594 210.485 43.7434 210.778 42.9563 211.14C42.2491 211.464 41.2875 212 40.6642 212.906C40.0908 213.74 39.7346 214.685 39.6857 215.712C39.6375 216.726 39.8966 217.657 40.2973 218.468C41.0601 220.011 42.4481 221.343 43.899 222.484C46.2485 224.332 49.5491 226.261 52.8782 228.207C53.6838 228.677 54.491 229.149 55.2868 229.621C59.5207 232.131 63.5686 234.714 66.3744 237.498C69.1849 240.287 70.2917 242.807 69.7759 245.32C69.1092 248.569 67.3651 250.654 64.8973 251.973C62.3283 253.346 58.8491 253.944 54.7968 253.801C46.6839 253.515 37.1727 250.292 30.538 246.196C24.427 242.422 19.4399 236.184 17.0406 229.445C14.6469 222.721 14.9062 215.78 18.7724 210.256C20.1774 208.249 23.0291 206.1 26.8935 203.984C30.6831 201.909 35.1527 200.02 39.4694 198.416C43.7761 196.817 47.8757 195.522 50.9022 194.626C51.8582 194.343 52.7057 194.101 53.417 193.901L57.0776 208.544Z" fill="#EB7396" stroke="#F5ABC4" stroke-width="5"/>
<path d="M157.573 195.261L156.341 171.039C157.177 170.962 158.226 170.882 159.452 170.823C162.831 170.659 167.53 170.651 172.798 171.272C183.389 172.519 195.946 176.264 204.882 186.012C207.262 188.608 209.201 192.631 210.594 197.531C211.976 202.392 212.766 207.92 212.98 213.334C213.194 218.753 212.828 223.969 211.951 228.206C211.046 232.583 209.694 235.419 208.333 236.637C206.001 238.724 201.5 240.435 195.574 241.451C189.757 242.448 182.967 242.71 176.448 242.215C169.907 241.718 163.804 240.47 159.302 238.552C154.64 236.566 152.493 234.229 152.202 231.999C151.43 226.084 155.06 221.504 159.278 216.184C159.343 216.102 159.408 216.02 159.473 215.938C161.493 213.39 163.663 210.595 164.858 207.58C166.119 204.4 166.319 200.929 164.454 197.204C163.62 195.537 161.855 195.198 161.049 195.103C160.046 194.985 158.958 195.071 158.064 195.19C157.898 195.212 157.734 195.236 157.573 195.261Z" fill="#EB7396" stroke="#F5ABC4" stroke-width="5"/>
<path d="M84.7427 162.115L84.7427 162.115L84.7427 162.115L85.0025 164.323H87.2255H113.726H115.181L115.9 163.057L115.9 163.057L115.9 163.057L115.901 163.055L115.905 163.048L115.923 163.017L115.997 162.887C116.063 162.772 116.163 162.6 116.293 162.378C116.552 161.933 116.934 161.288 117.417 160.49C118.383 158.894 119.753 156.696 121.362 154.289C124.622 149.41 128.718 143.904 132.373 140.704C135.559 137.913 140.06 134.628 143.977 132.305C145.947 131.136 147.668 130.272 148.944 129.819C149.156 129.743 149.341 129.685 149.501 129.639C149.587 130.056 149.666 130.593 149.735 131.257C149.915 132.993 149.995 135.276 150.048 137.886C150.066 138.749 150.081 139.647 150.096 140.566C150.17 145.086 150.253 150.125 150.744 154.127C151.293 158.601 152.397 161.315 153.529 164.096C153.626 164.334 153.723 164.573 153.82 164.813C155.005 167.748 156.289 171.184 157.252 177.689C158.456 185.812 158.315 194.936 156.067 202.724C153.821 210.502 149.576 216.658 142.759 219.517C129.634 225.021 118.317 227.561 106.831 227.839C95.3169 228.117 83.5042 226.127 69.3617 222.405C62.9772 220.725 58.0525 215.824 54.4754 210.017C50.9088 204.228 48.8885 197.861 48.1877 193.888C46.725 185.597 46.7886 167.971 55.8164 154.193C59.5103 148.555 64.4517 143.485 68.7801 139.89C70.9427 138.094 72.9034 136.707 74.4256 135.816C75.1917 135.367 75.7923 135.076 76.2163 134.917C76.2302 134.911 76.2435 134.906 76.2565 134.902C76.4122 135.049 76.6113 135.267 76.8485 135.57C77.4632 136.357 78.1614 137.499 78.8722 138.89C80.291 141.667 81.5964 145.115 82.3 147.929C83.0211 150.814 83.6323 154.347 84.0664 157.199C84.2821 158.616 84.4517 159.849 84.5672 160.727C84.6249 161.166 84.669 161.515 84.6986 161.753C84.7134 161.873 84.7246 161.964 84.7319 162.025L84.7402 162.094L84.7421 162.111L84.7426 162.114L84.7427 162.115ZM150.258 129.501C150.257 129.501 150.247 129.501 150.229 129.5C150.249 129.499 150.258 129.5 150.258 129.501ZM76.0094 134.7C76.0094 134.7 76.0115 134.701 76.0156 134.703C76.0115 134.701 76.0094 134.7 76.0094 134.7Z" fill="#EB7396" stroke="#F5ABC4" stroke-width="5"/>
<path d="M111.481 212.229C109.523 211.517 108.97 209.054 110.507 207.648C114.244 204.229 120.608 198.992 125.918 197.545C132.26 195.816 141.868 197.087 145.903 197.752C147.008 197.935 147.792 198.896 147.792 200.016C147.791 201.557 146.334 202.703 144.821 202.412C140.389 201.56 131.978 200.403 126.464 202.515C121.982 204.231 117.007 209.027 114.679 211.456C113.854 212.317 112.601 212.636 111.481 212.229Z" fill="#F5ABC4"/>
<path d="M47.4073 196.723C46.4918 194.956 47.4709 192.84 49.4467 192.603C53.4054 192.127 59.706 191.969 64.7857 194.599C70.9706 197.802 78.5176 205.001 81.827 208.319C82.793 209.287 82.8012 210.832 81.8748 211.838C80.8121 212.992 78.9727 212.965 77.9042 211.816C74.5949 208.258 67.6801 201.385 61.5756 198.96C57.7714 197.448 54.0968 197.839 51.674 198.438C50.0363 198.842 48.1834 198.22 47.4073 196.723Z" fill="#F5ABC4"/>
<path d="M256.121 220.08V228H231.065V221.76L241.913 209.664H231.449V201.744H255.593V207.984L244.745 220.08H256.121Z" fill="#EB7396"/>
<path d="M246.828 173.44V184H213.42V175.68L227.884 159.552H213.932V148.992H246.124V157.312L231.66 173.44H246.828Z" fill="#F5ABC4"/>
<path d="M217.535 128.8V142H175.775V131.6L193.855 111.44H176.415V98.24H216.655V108.64L198.575 128.8H217.535Z" fill="#EB7396"/>
</svg>
