<svg width="1400" height="800" viewBox="0 0 1400 800" fill="none" xmlns="http://www.w3.org/2000/svg">
<rect width="1400" height="800" fill="#282828"/>
<path d="M1116.27 126.688C1119.72 128.831 1123.04 129.722 1125.3 126.071C1127.57 122.42 1126.61 117.729 1123.16 115.587C1119.71 113.444 1115.08 114.666 1112.82 118.318C1110.55 121.968 1112.82 124.546 1116.27 126.688ZM1143.34 137.27C1141.08 140.92 1137.76 140.029 1134.31 137.887C1130.86 135.744 1128.59 133.168 1130.86 129.517C1133.12 125.866 1137.75 124.643 1141.2 126.785C1144.65 128.928 1145.61 133.617 1143.34 137.27ZM1122.22 134.168L1124.95 135.866C1125.65 136.296 1126.56 135.918 1126.72 135.119L1127.14 133.302C1127.36 132.361 1126.96 131.399 1126.14 130.891C1125.32 130.383 1124.26 130.454 1123.52 131.053L1122.09 132.242C1121.46 132.756 1121.53 133.738 1122.22 134.168Z" fill="url(#paint0_linear_90_376)"/>
<path d="M1107.93 113.809C1115.06 102.318 1130.17 98.7871 1141.66 105.921C1153.15 113.056 1156.69 128.161 1149.56 139.651C1147.17 143.5 1144.42 145.574 1141.19 146.049C1138.52 146.441 1135.8 145.688 1133.11 144.468L1129.72 149.934C1129.16 150.83 1128.35 151.54 1127.39 151.973C1126.43 152.406 1125.36 152.543 1124.32 152.366C1123.28 152.189 1122.31 151.707 1121.55 150.98C1120.79 150.253 1120.25 149.316 1120.03 148.286C1118.58 148.595 1117.07 148.332 1115.82 147.553C1114.56 146.773 1113.65 145.537 1113.29 144.105C1112.27 144.356 1111.19 144.297 1110.2 143.934C1109.21 143.572 1108.35 142.922 1107.73 142.069C1107.11 141.215 1106.76 140.197 1106.72 139.143C1106.68 138.089 1106.96 137.047 1107.51 136.151L1110.9 130.688C1108.61 128.822 1106.73 126.718 1105.9 124.151C1104.9 121.047 1105.54 117.657 1107.93 113.809ZM1123.07 140.518C1123.29 140.15 1123.66 139.888 1124.08 139.789C1124.5 139.691 1124.95 139.764 1125.31 139.992C1125.68 140.221 1125.94 140.586 1126.04 141.008C1126.14 141.43 1126.07 141.873 1125.84 142.241L1123.47 146.057C1123.19 146.518 1123.1 147.072 1123.22 147.599C1123.34 148.127 1123.67 148.583 1124.13 148.869C1124.59 149.154 1125.14 149.246 1125.67 149.122C1126.2 148.999 1126.66 148.671 1126.94 148.211L1131.11 141.499C1131.32 141.151 1131.66 140.897 1132.06 140.786C1132.45 140.676 1132.87 140.717 1133.24 140.903C1136.22 142.417 1138.64 143.121 1140.71 142.815C1142.68 142.527 1144.71 141.266 1146.78 137.929C1152.96 127.972 1149.9 114.88 1139.94 108.697C1129.97 102.513 1116.88 105.575 1110.7 115.531C1108.63 118.869 1108.4 121.251 1109.01 123.144C1109.66 125.141 1111.36 126.996 1114.04 128.988C1114.37 129.232 1114.6 129.592 1114.67 129.994C1114.75 130.397 1114.67 130.813 1114.46 131.162L1110.29 137.874C1110 138.334 1109.91 138.889 1110.04 139.416C1110.16 139.943 1110.49 140.4 1110.95 140.685C1111.41 140.971 1111.96 141.062 1112.49 140.939C1113.02 140.815 1113.47 140.488 1113.76 140.027L1116.13 136.211C1116.36 135.843 1116.72 135.581 1117.14 135.482C1117.56 135.384 1118.01 135.457 1118.38 135.685C1118.74 135.913 1119.01 136.279 1119.11 136.701C1119.2 137.122 1119.13 137.566 1118.9 137.934L1116.75 141.403C1116.41 141.955 1116.3 142.621 1116.44 143.254C1116.59 143.886 1116.99 144.434 1117.54 144.777C1118.09 145.12 1118.76 145.229 1119.39 145.081C1120.02 144.933 1120.57 144.54 1120.91 143.988L1123.07 140.518Z" fill="url(#paint1_linear_90_376)"/>
<path d="M257.271 567.688C260.722 569.831 264.038 570.722 266.305 567.071C268.571 563.42 267.613 558.729 264.162 556.587C260.711 554.444 256.083 555.666 253.815 559.318C251.55 562.968 253.82 565.546 257.271 567.688ZM284.345 578.27C282.079 581.92 278.762 581.029 275.311 578.887C271.86 576.744 269.589 574.168 271.856 570.517C274.122 566.866 278.751 565.643 282.202 567.785C285.654 569.928 286.612 574.617 284.345 578.27ZM263.22 575.168L265.954 576.866C266.648 577.296 267.555 576.918 267.724 576.119L268.141 574.302C268.36 573.361 267.957 572.399 267.138 571.891C266.32 571.383 265.257 571.454 264.519 572.053L263.09 573.242C262.463 573.756 262.526 574.738 263.22 575.168Z" fill="url(#paint2_linear_90_376)"/>
<path d="M248.926 554.809C256.058 543.318 271.165 539.787 282.658 546.921C294.151 554.056 297.689 569.161 290.557 580.651C288.168 584.5 285.415 586.574 282.189 587.049C279.521 587.441 276.801 586.688 274.11 585.468L270.717 590.934C270.16 591.83 269.349 592.54 268.388 592.973C267.426 593.406 266.357 593.543 265.318 593.366C264.278 593.189 263.314 592.707 262.55 591.98C261.786 591.253 261.255 590.316 261.026 589.286C259.58 589.595 258.071 589.332 256.815 588.553C255.56 587.773 254.654 586.537 254.29 585.105C253.266 585.356 252.19 585.297 251.199 584.934C250.209 584.572 249.349 583.922 248.729 583.069C248.109 582.215 247.758 581.197 247.72 580.143C247.681 579.089 247.957 578.047 248.513 577.151L251.905 571.688C249.612 569.822 247.733 567.718 246.902 565.151C245.897 562.047 246.537 558.657 248.926 554.809ZM264.066 581.518C264.294 581.15 264.659 580.888 265.081 580.789C265.503 580.691 265.947 580.764 266.315 580.992C266.683 581.221 266.945 581.586 267.044 582.008C267.142 582.43 267.069 582.873 266.841 583.241L264.472 587.057C264.186 587.518 264.095 588.072 264.219 588.599C264.342 589.127 264.67 589.583 265.13 589.869C265.59 590.154 266.145 590.246 266.672 590.122C267.199 589.999 267.656 589.671 267.941 589.211L272.108 582.499C272.324 582.151 272.662 581.897 273.056 581.786C273.449 581.676 273.87 581.717 274.235 581.903C277.217 583.417 279.637 584.121 281.714 583.815C283.681 583.527 285.71 582.266 287.781 578.929C293.962 568.972 290.896 555.88 280.935 549.697C270.975 543.513 257.882 546.575 251.701 556.531C249.629 559.869 249.397 562.251 250.009 564.144C250.657 566.141 252.362 567.996 255.042 569.988C255.371 570.232 255.596 570.592 255.673 570.994C255.749 571.397 255.672 571.813 255.456 572.162L251.289 578.874C251.003 579.334 250.912 579.889 251.036 580.416C251.159 580.943 251.487 581.4 251.947 581.685C252.407 581.971 252.961 582.062 253.489 581.939C254.016 581.815 254.473 581.488 254.758 581.027L257.127 577.211C257.356 576.843 257.721 576.581 258.143 576.482C258.564 576.384 259.008 576.457 259.376 576.685C259.744 576.913 260.006 577.279 260.105 577.701C260.204 578.122 260.131 578.566 259.902 578.934L257.749 582.403C257.406 582.955 257.297 583.621 257.445 584.254C257.593 584.886 257.986 585.434 258.538 585.777C259.09 586.12 259.756 586.229 260.389 586.081C261.021 585.933 261.569 585.54 261.912 584.988L264.066 581.518Z" fill="url(#paint3_linear_90_376)"/>
<path d="M338.969 164.755L327.866 179.556C327.638 179.86 327.418 180.161 327.175 180.452C325.741 182.169 319.889 188.323 309.586 188.463C297.606 188.626 288.946 179.552 292.706 169.098C296.466 158.644 306.619 163.555 313.32 161.494C320.021 159.433 328.146 153.414 328.146 153.414" stroke="url(#paint4_linear_90_376)" stroke-width="4"/>
<path d="M345.032 152.035L353.898 152.242M341.505 175.335C341.505 175.335 345.499 168.855 346.515 164.488C347.901 158.539 346.774 153.406 344.187 150.241C341.6 147.076 335.149 143.266 328.353 144.548C321.555 145.829 317.62 149.398 317.62 149.398L328.811 152.279C329.128 152.361 329.406 152.55 329.598 152.815C329.79 153.08 329.883 153.404 329.862 153.73L329.351 161.354C329.339 161.538 329.362 161.722 329.421 161.897C329.48 162.072 329.573 162.233 329.694 162.372C329.815 162.51 329.962 162.624 330.127 162.706C330.292 162.787 330.472 162.836 330.656 162.848L338.342 163.362C338.655 163.383 338.953 163.508 339.187 163.719C339.421 163.929 339.577 164.212 339.63 164.522L341.505 175.335Z" stroke="url(#paint5_linear_90_376)" stroke-width="4" stroke-linecap="round" stroke-linejoin="round"/>
<path d="M242.241 335.293C236.719 337.018 232.161 344.047 234.451 351.376L234.839 352.621L232.894 353.229C228.601 354.57 226.206 359.166 227.553 363.478C227.802 364.275 228.172 365.024 228.648 365.699C227.027 366.812 225.805 368.417 225.162 370.28C224.518 372.143 224.487 374.166 225.073 376.051C226.588 380.9 231.749 383.619 236.576 382.111L269.654 371.779C274.481 370.272 277.177 365.098 275.663 360.249C275.072 358.365 273.895 356.719 272.306 355.552C270.716 354.386 268.797 353.761 266.83 353.769C266.837 352.938 266.714 352.112 266.466 351.319C265.12 347.007 260.534 344.591 256.242 345.932L254.163 346.581C252.581 343.272 250.335 342.487 248.625 341.888C246.833 341.259 245.649 340.84 244.851 336.848L244.4 334.619L242.241 335.293ZM241.539 340.206C242.843 343.881 244.934 344.92 247.291 345.748C248.972 346.341 250.084 346.731 251.016 349.714L251.626 351.668L257.464 349.845C259.61 349.174 261.903 350.382 262.576 352.538C262.871 353.482 262.797 354.516 262.369 355.452L260.448 359.639L265.381 358.098C268.064 357.26 270.929 358.769 271.771 361.465C272.613 364.16 271.116 367.032 268.433 367.87L235.355 378.202C234.065 378.605 232.667 378.477 231.468 377.845C230.27 377.214 229.369 376.131 228.965 374.835C228.123 372.14 229.62 369.268 232.303 368.43L237.235 366.889L233.272 364.54C232.405 364.032 231.754 363.221 231.444 362.262C230.771 360.107 231.968 357.808 234.115 357.138L239.952 355.315L238.342 350.161C237.121 346.252 238.897 342.187 241.539 340.206ZM239.227 359.831C238.711 359.993 238.281 360.353 238.03 360.834C237.78 361.314 237.73 361.875 237.892 362.394C238.054 362.912 238.414 363.345 238.893 363.598C239.373 363.85 239.932 363.902 240.448 363.74C240.964 363.579 241.395 363.219 241.645 362.738C241.896 362.258 241.945 361.696 241.783 361.178C241.621 360.66 241.261 360.227 240.782 359.974C240.302 359.722 239.743 359.67 239.227 359.831ZM254.793 354.969C254.277 355.131 253.847 355.491 253.596 355.972C253.346 356.452 253.296 357.013 253.458 357.532C253.62 358.05 253.98 358.483 254.459 358.736C254.939 358.988 255.498 359.04 256.014 358.878C256.53 358.717 256.961 358.357 257.211 357.876C257.462 357.396 257.511 356.834 257.349 356.316C257.188 355.798 256.827 355.365 256.348 355.112C255.868 354.859 255.309 354.808 254.793 354.969ZM244.95 364.479C245.274 365.516 245.994 366.382 246.953 366.887C247.912 367.393 249.031 367.495 250.063 367.173C251.095 366.85 251.956 366.129 252.457 365.168C252.958 364.207 253.057 363.085 252.733 362.048L244.95 364.479Z" fill="url(#paint6_linear_90_376)"/>
<path d="M1131.97 651.755L1120.87 666.556C1120.64 666.86 1120.42 667.161 1120.17 667.452C1118.74 669.169 1112.89 675.323 1102.59 675.463C1090.61 675.626 1081.95 666.552 1085.71 656.098C1089.47 645.644 1099.62 650.555 1106.32 648.494C1113.02 646.433 1121.15 640.414 1121.15 640.414" stroke="url(#paint7_linear_90_376)" stroke-width="4"/>
<path d="M1138.03 639.035L1146.9 639.242M1134.51 662.335C1134.51 662.335 1138.5 655.855 1139.51 651.488C1140.9 645.539 1139.77 640.406 1137.19 637.241C1134.6 634.076 1128.15 630.266 1121.35 631.548C1114.56 632.829 1110.62 636.398 1110.62 636.398L1121.81 639.279C1122.13 639.361 1122.41 639.55 1122.6 639.815C1122.79 640.08 1122.88 640.404 1122.86 640.73L1122.35 648.354C1122.34 648.538 1122.36 648.722 1122.42 648.897C1122.48 649.072 1122.57 649.233 1122.69 649.372C1122.81 649.51 1122.96 649.624 1123.13 649.706C1123.29 649.787 1123.47 649.836 1123.66 649.848L1131.34 650.362C1131.66 650.383 1131.95 650.508 1132.19 650.719C1132.42 650.929 1132.58 651.212 1132.63 651.522L1134.51 662.335Z" stroke="url(#paint8_linear_90_376)" stroke-width="4" stroke-linecap="round" stroke-linejoin="round"/>
<path d="M1241.24 201.293C1235.72 203.018 1231.16 210.047 1233.45 217.376L1233.84 218.621L1231.89 219.229C1227.6 220.57 1225.21 225.166 1226.55 229.478C1226.8 230.275 1227.17 231.024 1227.65 231.699C1226.03 232.812 1224.81 234.417 1224.16 236.28C1223.52 238.143 1223.49 240.166 1224.07 242.051C1225.59 246.9 1230.75 249.619 1235.58 248.111L1268.65 237.779C1273.48 236.272 1276.18 231.098 1274.66 226.249C1274.07 224.365 1272.9 222.719 1271.31 221.552C1269.72 220.386 1267.8 219.761 1265.83 219.769C1265.84 218.938 1265.71 218.112 1265.47 217.319C1264.12 213.007 1259.53 210.591 1255.24 211.932L1253.16 212.581C1251.58 209.272 1249.33 208.487 1247.63 207.888C1245.83 207.259 1244.65 206.84 1243.85 202.848L1243.4 200.619L1241.24 201.293ZM1240.54 206.206C1241.84 209.881 1243.93 210.92 1246.29 211.748C1247.97 212.341 1249.08 212.731 1250.02 215.714L1250.63 217.668L1256.46 215.845C1258.61 215.174 1260.9 216.382 1261.58 218.538C1261.87 219.482 1261.8 220.516 1261.37 221.452L1259.45 225.639L1264.38 224.098C1267.06 223.26 1269.93 224.769 1270.77 227.465C1271.61 230.16 1270.12 233.032 1267.43 233.87L1234.36 244.202C1233.07 244.605 1231.67 244.477 1230.47 243.845C1229.27 243.214 1228.37 242.131 1227.96 240.835C1227.12 238.14 1228.62 235.268 1231.3 234.43L1236.24 232.889L1232.27 230.54C1231.41 230.032 1230.75 229.221 1230.44 228.262C1229.77 226.107 1230.97 223.808 1233.11 223.138L1238.95 221.315L1237.34 216.161C1236.12 212.252 1237.9 208.187 1240.54 206.206ZM1238.23 225.831C1237.71 225.993 1237.28 226.353 1237.03 226.834C1236.78 227.314 1236.73 227.875 1236.89 228.394C1237.05 228.912 1237.41 229.345 1237.89 229.598C1238.37 229.85 1238.93 229.902 1239.45 229.74C1239.96 229.579 1240.39 229.219 1240.65 228.738C1240.9 228.258 1240.95 227.696 1240.78 227.178C1240.62 226.66 1240.26 226.227 1239.78 225.974C1239.3 225.722 1238.74 225.67 1238.23 225.831ZM1253.79 220.969C1253.28 221.131 1252.85 221.491 1252.6 221.972C1252.35 222.452 1252.3 223.013 1252.46 223.532C1252.62 224.05 1252.98 224.483 1253.46 224.736C1253.94 224.988 1254.5 225.04 1255.01 224.878C1255.53 224.717 1255.96 224.357 1256.21 223.876C1256.46 223.396 1256.51 222.834 1256.35 222.316C1256.19 221.798 1255.83 221.365 1255.35 221.112C1254.87 220.859 1254.31 220.808 1253.79 220.969ZM1243.95 230.479C1244.27 231.516 1244.99 232.382 1245.95 232.887C1246.91 233.393 1248.03 233.495 1249.06 233.173C1250.09 232.85 1250.96 232.129 1251.46 231.168C1251.96 230.207 1252.06 229.085 1251.73 228.048L1243.95 230.479Z" fill="url(#paint9_linear_90_376)"/>
<path d="M1168.88 528.571L1170.24 521.295C1170.69 520.115 1171.31 519.576 1171.82 519.368C1172.35 519.155 1172.93 519.227 1173.42 519.541C1174.34 520.13 1175.12 521.769 1173.63 523.973C1171.95 526.446 1170.34 527.731 1169.2 528.395C1169.09 528.46 1168.98 528.518 1168.88 528.571ZM1126.98 506.949C1127.25 504.302 1128.9 503.548 1129.99 503.691C1130.56 503.767 1131.05 504.082 1131.32 504.587C1131.58 505.08 1131.71 505.891 1131.29 507.082L1127.65 513.524C1127.6 513.418 1127.56 513.304 1127.51 513.184C1127.07 511.939 1126.66 509.919 1126.98 506.949Z" stroke="url(#paint10_linear_90_376)" stroke-width="2"/>
<path d="M1167.7 529.72C1164.9 537.379 1161.54 541.464 1157.36 543.13C1153.15 544.81 1147.81 544.155 1140.77 541.584C1133.72 539.014 1129.22 536.078 1127.08 532.079C1124.95 528.113 1125.01 522.821 1127.81 515.161C1130.6 507.513 1134.97 500.666 1140.31 496.38C1145.62 492.118 1151.85 490.406 1158.55 492.853C1165.25 495.299 1168.92 500.621 1170.23 507.301C1171.56 514.02 1170.49 522.071 1167.7 529.72Z" stroke="url(#paint11_linear_90_376)" stroke-width="2"/>
<path d="M1159.95 528.597L1159.71 528.899L1159.74 529.284C1160.01 533.555 1159.03 536.267 1157.54 537.997C1156.04 539.741 1153.89 540.637 1151.56 541.013C1149.23 541.389 1146.79 541.23 1144.85 540.94C1142.9 540.65 1141.51 540.239 1141.29 540.159C1140.74 539.96 1135.84 537.922 1132.68 534.379C1131.11 532.626 1130.04 530.583 1130.04 528.268C1130.03 525.962 1131.08 523.185 1134.18 519.957L1134.44 519.678L1134.45 519.292C1134.55 515.697 1134.76 512.979 1135.34 511.329C1135.62 510.511 1135.94 510.128 1136.21 509.967C1136.44 509.831 1136.82 509.746 1137.55 510.011L1163.56 519.505C1164.29 519.77 1164.53 520.081 1164.62 520.331C1164.72 520.63 1164.72 521.127 1164.41 521.937C1163.78 523.568 1162.19 525.783 1159.95 528.597Z" stroke="url(#paint12_linear_90_376)" stroke-width="2"/>
<path d="M1144.48 515.215C1144.29 515.722 1143.92 516.135 1143.43 516.363C1142.94 516.59 1142.38 516.614 1141.87 516.429C1141.36 516.244 1140.95 515.865 1140.72 515.376C1140.49 514.887 1140.47 514.327 1140.66 513.82C1140.75 513.548 1140.84 513.49 1140.84 513.49L1140.84 513.49C1140.84 513.49 1140.84 513.49 1140.84 513.49C1140.84 513.489 1140.84 513.487 1140.86 513.484C1140.87 513.48 1140.91 513.474 1140.98 513.477C1141.13 513.485 1141.34 513.532 1141.66 513.638C1141.88 513.709 1142.1 513.789 1142.34 513.881C1142.47 513.928 1142.6 513.978 1142.74 514.031C1142.89 514.085 1143.03 514.133 1143.16 514.178C1143.4 514.265 1143.62 514.342 1143.83 514.426C1144.14 514.552 1144.33 514.655 1144.45 514.746C1144.51 514.787 1144.53 514.816 1144.54 514.829C1144.55 514.839 1144.55 514.842 1144.55 514.843C1144.55 514.844 1144.55 514.844 1144.55 514.844L1144.55 514.844C1144.55 514.845 1144.58 514.943 1144.48 515.215ZM1158.74 520.418C1158.55 520.925 1158.17 521.338 1157.68 521.565C1157.19 521.793 1156.63 521.817 1156.13 521.632C1155.62 521.447 1155.21 521.068 1154.98 520.579C1154.75 520.089 1154.73 519.529 1154.91 519.022C1155.01 518.749 1155.1 518.693 1155.1 518.692C1155.1 518.692 1155.1 518.692 1155.1 518.692C1155.1 518.691 1155.1 518.689 1155.11 518.687C1155.13 518.683 1155.16 518.677 1155.23 518.68C1155.38 518.688 1155.6 518.735 1155.92 518.841C1156.14 518.912 1156.35 518.992 1156.6 519.083C1156.72 519.131 1156.86 519.181 1157 519.234C1157.15 519.287 1157.28 519.336 1157.41 519.381C1157.66 519.468 1157.87 519.545 1158.08 519.629C1158.39 519.754 1158.59 519.857 1158.71 519.948C1158.77 519.99 1158.79 520.019 1158.8 520.032C1158.81 520.041 1158.81 520.045 1158.81 520.046L1158.81 520.046C1158.81 520.047 1158.84 520.144 1158.74 520.418Z" stroke="url(#paint13_linear_90_376)" stroke-width="2"/>
<path d="M1144.39 524.313C1144.39 524.317 1144.35 524.415 1144.11 524.48C1143.87 524.545 1143.51 524.543 1143.12 524.399C1142.72 524.256 1142.45 524.028 1142.31 523.823C1142.16 523.615 1142.2 523.516 1142.2 523.513C1142.2 523.51 1142.24 523.411 1142.48 523.346C1142.72 523.281 1143.08 523.284 1143.47 523.427C1143.86 523.57 1144.14 523.799 1144.28 524.003C1144.43 524.211 1144.39 524.31 1144.39 524.313Z" stroke="url(#paint14_linear_90_376)" stroke-width="2"/>
<path d="M1151.31 526.84C1151.31 526.844 1151.27 526.942 1151.03 527.007C1150.79 527.072 1150.43 527.069 1150.04 526.926C1149.64 526.782 1149.37 526.553 1149.23 526.349C1149.08 526.142 1149.12 526.043 1149.12 526.039C1149.12 526.035 1149.16 525.937 1149.4 525.872C1149.64 525.807 1150 525.809 1150.39 525.953C1150.79 526.097 1151.06 526.325 1151.2 526.53C1151.35 526.737 1151.31 526.836 1151.31 526.84Z" stroke="url(#paint15_linear_90_376)" stroke-width="2"/>
<path d="M1151.96 523.906L1151.96 523.906C1153.83 524.882 1154.3 526.164 1154.29 526.92C1154.28 527.291 1154.17 527.497 1154.1 527.574C1154.1 527.568 1154.1 527.563 1154.1 527.557C1154.1 527.476 1154.09 527.341 1154.08 527.259C1154.06 526.93 1153.99 526.51 1153.76 526.03C1153.52 525.56 1153.15 525.087 1152.6 524.597C1151.43 523.568 1149.99 523.332 1148.89 523.332C1148.97 523.32 1149.06 523.31 1149.14 523.302C1149.83 523.238 1150.82 523.31 1151.96 523.906ZM1146.14 522.204C1146.2 522.267 1146.25 522.328 1146.31 522.388C1145.47 521.68 1144.21 520.933 1142.66 520.967L1142.66 520.968C1141.92 520.985 1141.33 521.109 1140.85 521.319C1140.36 521.533 1140.04 521.812 1139.81 522.047C1139.75 522.106 1139.66 522.205 1139.6 522.264C1139.6 522.269 1139.59 522.272 1139.59 522.276C1139.59 522.175 1139.64 521.945 1139.87 521.659C1140.35 521.072 1141.54 520.396 1143.59 520.853L1143.59 520.853C1144.85 521.132 1145.65 521.713 1146.14 522.204ZM1139.57 522.293C1139.57 522.293 1139.57 522.293 1139.57 522.294C1139.57 522.294 1139.57 522.294 1139.57 522.294C1139.57 522.294 1139.57 522.293 1139.57 522.293ZM1154.11 527.598C1154.11 527.598 1154.1 527.598 1154.1 527.598C1154.1 527.598 1154.1 527.598 1154.1 527.598C1154.1 527.598 1154.11 527.598 1154.11 527.598Z" stroke="url(#paint16_linear_90_376)" stroke-width="2"/>
<path d="M1153.28 536.812L1153.28 536.812C1153.73 536.853 1154.12 536.872 1154.45 536.875C1154.23 536.802 1154 536.735 1153.74 536.679L1153.28 536.812ZM1153.28 536.812C1151.51 536.655 1148.62 536.038 1143.48 534.162C1138.33 532.286 1135.73 530.896 1134.27 529.877L1134.27 529.877M1153.28 536.812L1134.27 529.877M1134.27 529.877C1133.9 529.616 1133.59 529.38 1133.33 529.169M1134.27 529.877L1133.33 529.169M1133.33 529.169C1133.55 529.252 1133.77 529.354 1134 529.476L1133.33 529.169ZM1155.77 536.729C1155.77 536.729 1155.77 536.729 1155.77 536.729L1155.77 536.729ZM1132.42 528.209C1132.42 528.209 1132.42 528.209 1132.42 528.21L1132.42 528.209ZM1134 529.476C1136.65 530.866 1139.04 531.995 1143.65 533.677C1148.26 535.359 1150.82 536.039 1153.74 536.679L1134 529.476Z" stroke="url(#paint17_linear_90_376)" stroke-width="2"/>
<path d="M147.878 702.571L149.238 695.294C149.686 694.115 150.305 693.576 150.824 693.368C151.355 693.155 151.929 693.227 152.419 693.541C153.342 694.13 154.117 695.769 152.625 697.973C150.951 700.446 149.341 701.731 148.197 702.395C148.086 702.46 147.98 702.518 147.878 702.571ZM105.976 680.949C106.255 678.302 107.902 677.548 108.988 677.691C109.565 677.767 110.05 678.082 110.32 678.587C110.583 679.08 110.709 679.891 110.292 681.082L106.645 687.524C106.601 687.418 106.558 687.304 106.515 687.184C106.067 685.939 105.663 683.919 105.976 680.949Z" stroke="url(#paint18_linear_90_376)" stroke-width="2"/>
<path d="M146.7 703.72C143.905 711.379 140.54 715.464 136.361 717.13C132.148 718.81 126.812 718.155 119.768 715.584C112.723 713.014 108.22 710.078 106.078 706.079C103.954 702.113 104.011 696.821 106.806 689.161C109.597 681.513 113.966 674.666 119.307 670.38C124.618 666.118 130.848 664.406 137.551 666.853C144.255 669.299 147.917 674.621 149.234 681.301C150.559 688.02 149.491 696.071 146.7 703.72Z" stroke="url(#paint19_linear_90_376)" stroke-width="2"/>
<path d="M138.953 702.597L138.712 702.899L138.737 703.284C139.013 707.555 138.03 710.267 136.538 711.997C135.036 713.741 132.89 714.637 130.558 715.013C128.226 715.389 125.793 715.23 123.848 714.94C121.896 714.65 120.507 714.239 120.288 714.159C119.743 713.96 114.845 711.922 111.68 708.379C110.114 706.626 109.042 704.583 109.036 702.268C109.03 699.962 110.082 697.185 113.177 693.957L113.444 693.678L113.455 693.292C113.554 689.697 113.765 686.979 114.338 685.329C114.623 684.511 114.94 684.128 115.213 683.967C115.441 683.831 115.823 683.746 116.55 684.011L142.565 693.505C143.291 693.77 143.527 694.081 143.615 694.331C143.72 694.63 143.716 695.127 143.407 695.937C142.783 697.568 141.193 699.783 138.953 702.597Z" stroke="url(#paint20_linear_90_376)" stroke-width="2"/>
<path d="M123.479 689.215C123.294 689.722 122.915 690.135 122.426 690.363C121.937 690.59 121.377 690.614 120.87 690.429C120.363 690.244 119.95 689.865 119.722 689.376C119.495 688.887 119.471 688.327 119.656 687.82C119.755 687.548 119.839 687.49 119.839 687.49L119.839 687.49C119.839 687.49 119.839 687.49 119.84 687.49C119.841 687.489 119.843 687.487 119.855 687.484C119.871 687.48 119.909 687.474 119.977 687.477C120.128 687.485 120.344 687.532 120.665 687.638C120.88 687.709 121.095 687.789 121.339 687.881C121.466 687.928 121.599 687.978 121.745 688.031C121.892 688.085 122.027 688.133 122.155 688.178C122.4 688.265 122.615 688.342 122.825 688.426C123.138 688.552 123.334 688.655 123.454 688.746C123.509 688.787 123.534 688.816 123.543 688.829C123.55 688.839 123.551 688.842 123.551 688.843C123.551 688.844 123.552 688.844 123.552 688.844L123.552 688.844C123.552 688.845 123.579 688.943 123.479 689.215ZM137.736 694.418C137.551 694.925 137.172 695.338 136.683 695.565C136.193 695.793 135.633 695.817 135.126 695.632C134.619 695.447 134.206 695.068 133.979 694.579C133.751 694.089 133.727 693.529 133.912 693.022C134.012 692.749 134.096 692.693 134.096 692.692C134.096 692.692 134.096 692.692 134.096 692.692C134.097 692.691 134.1 692.689 134.112 692.687C134.128 692.683 134.165 692.677 134.234 692.68C134.384 692.688 134.601 692.735 134.921 692.841C135.136 692.912 135.351 692.992 135.596 693.083C135.722 693.131 135.856 693.181 136.001 693.234C136.148 693.287 136.284 693.336 136.412 693.381C136.656 693.468 136.872 693.545 137.082 693.629C137.395 693.754 137.591 693.857 137.711 693.948C137.765 693.99 137.79 694.019 137.8 694.032C137.807 694.042 137.808 694.045 137.808 694.046C137.808 694.047 137.836 694.144 137.736 694.418Z" stroke="url(#paint21_linear_90_376)" stroke-width="2"/>
<path d="M123.39 698.313C123.389 698.317 123.352 698.415 123.107 698.48C122.866 698.545 122.509 698.543 122.116 698.399C121.723 698.256 121.449 698.028 121.306 697.823C121.161 697.615 121.196 697.516 121.197 697.513C121.198 697.51 121.235 697.411 121.48 697.346C121.721 697.281 122.078 697.284 122.471 697.427C122.864 697.57 123.138 697.799 123.282 698.003C123.427 698.211 123.391 698.31 123.39 698.313Z" stroke="url(#paint22_linear_90_376)" stroke-width="2"/>
<path d="M130.313 700.84C130.312 700.844 130.275 700.942 130.03 701.007C129.79 701.072 129.433 701.069 129.039 700.926C128.645 700.782 128.37 700.553 128.227 700.349C128.082 700.142 128.117 700.043 128.119 700.039C128.12 700.035 128.157 699.937 128.401 699.872C128.642 699.807 129 699.809 129.394 699.953C129.788 700.097 130.062 700.325 130.205 700.53C130.35 700.737 130.314 700.836 130.313 700.84Z" stroke="url(#paint23_linear_90_376)" stroke-width="2"/>
<path d="M130.958 697.906L130.958 697.906C132.827 698.882 133.3 700.164 133.287 700.92C133.281 701.291 133.167 701.497 133.102 701.574C133.101 701.568 133.101 701.563 133.101 701.557C133.097 701.476 133.091 701.341 133.085 701.259C133.06 700.93 132.994 700.51 132.756 700.03C132.524 699.56 132.154 699.087 131.598 698.597C130.431 697.568 128.992 697.332 127.894 697.332C127.972 697.32 128.055 697.31 128.143 697.302C128.83 697.238 129.818 697.31 130.958 697.906ZM125.135 696.204C125.197 696.267 125.254 696.328 125.306 696.388C124.467 695.68 123.213 694.933 121.658 694.967L121.657 694.968C120.916 694.985 120.329 695.109 119.848 695.319C119.358 695.533 119.037 695.812 118.806 696.047C118.749 696.106 118.657 696.205 118.602 696.264C118.598 696.269 118.595 696.272 118.591 696.276C118.591 696.175 118.637 695.945 118.871 695.659C119.348 695.072 120.535 694.396 122.592 694.853L122.592 694.853C123.848 695.132 124.65 695.713 125.135 696.204ZM118.572 696.293C118.572 696.293 118.573 696.293 118.574 696.294C118.574 696.294 118.574 696.294 118.574 696.294C118.573 696.294 118.572 696.293 118.572 696.293ZM133.105 701.598C133.105 701.598 133.105 701.598 133.103 701.598C133.103 701.598 133.103 701.598 133.103 701.598C133.104 701.598 133.105 701.598 133.105 701.598Z" stroke="url(#paint24_linear_90_376)" stroke-width="2"/>
<path d="M132.276 710.812L132.277 710.812C132.729 710.853 133.119 710.872 133.45 710.875C133.235 710.802 132.997 710.735 132.741 710.679L132.276 710.812ZM132.276 710.812C130.51 710.655 127.617 710.038 122.476 708.162C117.335 706.286 114.726 704.896 113.273 703.877L113.272 703.877M132.276 710.812L113.272 703.877M113.272 703.877C112.9 703.616 112.589 703.38 112.334 703.169M113.272 703.877L112.334 703.169M112.334 703.169C112.546 703.252 112.77 703.354 113.002 703.476L112.334 703.169ZM134.767 710.729C134.767 710.729 134.767 710.729 134.766 710.729L134.767 710.729ZM111.42 702.209C111.42 702.209 111.421 702.209 111.421 702.21L111.42 702.209ZM113.003 703.476C115.649 704.866 118.044 705.995 122.653 707.677C127.262 709.359 129.824 710.039 132.741 710.679L113.003 703.476Z" stroke="url(#paint25_linear_90_376)" stroke-width="2"/>
<path fill-rule="evenodd" clip-rule="evenodd" d="M1099.33 351.626C1093.73 349.771 1087.74 352.754 1085.92 358.242C1085.61 359.182 1085.44 360.135 1085.4 361.075C1086.32 361.703 1087.12 362.457 1087.78 363.31C1087.92 363.475 1088.03 363.667 1088.1 363.873C1088.16 364.08 1088.18 364.298 1088.16 364.513C1088.14 364.728 1088.07 364.937 1087.97 365.127C1087.87 365.317 1087.72 365.484 1087.55 365.618C1087.38 365.752 1087.19 365.85 1086.98 365.906C1086.77 365.962 1086.55 365.976 1086.34 365.946C1086.12 365.916 1085.92 365.843 1085.73 365.731C1085.55 365.62 1085.39 365.472 1085.26 365.296C1084.33 364.117 1083.08 363.238 1081.65 362.771C1077.66 361.448 1073.4 363.58 1072.11 367.479C1070.81 371.377 1072.96 375.633 1076.95 376.956C1077.35 377.09 1077.69 377.379 1077.88 377.76C1078.07 378.142 1078.1 378.583 1077.97 378.988C1077.84 379.393 1077.55 379.728 1077.17 379.919C1076.78 380.11 1076.34 380.142 1075.94 380.008C1070.3 378.137 1067.19 372.085 1069.05 366.467C1070.88 360.962 1076.77 357.974 1082.31 359.608C1082.43 358.8 1082.61 358.004 1082.87 357.23C1085.26 350.024 1093.09 346.17 1100.34 348.574C1106.77 350.704 1110.62 357.05 1109.75 363.485C1113.77 367.025 1115.54 372.718 1113.76 378.098C1111.68 384.354 1105.5 388.081 1099.17 387.386C1098.75 387.34 1098.36 387.127 1098.09 386.794C1097.83 386.462 1097.7 386.036 1097.75 385.613C1097.8 385.189 1098.01 384.8 1098.34 384.534C1098.68 384.267 1099.1 384.143 1099.52 384.189C1104.41 384.724 1109.13 381.848 1110.7 377.086C1112.15 372.738 1110.55 368.086 1107.03 365.417C1106.09 364.699 1105.03 364.143 1103.91 363.77C1102.72 363.377 1101.52 363.205 1100.34 363.222C1099.92 363.22 1099.52 363.053 1099.22 362.757C1098.92 362.461 1098.75 362.06 1098.74 361.639C1098.74 361.218 1098.9 360.811 1099.19 360.506C1099.48 360.201 1099.87 360.022 1100.29 360.007C1102.5 359.971 1104.68 360.457 1106.65 361.426C1106.59 359.237 1105.85 357.121 1104.54 355.367C1103.23 353.613 1101.41 352.306 1099.33 351.626Z" fill="url(#paint26_linear_90_376)"/>
<path fill-rule="evenodd" clip-rule="evenodd" d="M1091.84 374.062C1090.67 373.232 1089.4 373.815 1088.79 374.134L1086.16 375.858L1086.07 375.923L1082.68 378.309L1082.6 378.372L1080.92 379.664C1080.47 380.086 1079.81 380.87 1079.99 381.99L1080 382.069C1080.21 383.154 1081.06 383.683 1081.61 383.952C1082.14 384.218 1082.87 384.459 1083.63 384.712L1084.21 384.905L1083.96 385.657C1083.58 386.815 1083.24 387.841 1083.09 388.63C1082.97 389.302 1082.79 390.721 1083.98 391.572C1085.15 392.403 1086.43 391.82 1087.04 391.501C1087.76 391.121 1088.65 390.492 1089.67 389.777L1093.14 387.325L1093.23 387.263L1093.35 387.18C1093.94 386.763 1094.51 386.356 1094.91 385.971C1095.35 385.549 1096.01 384.765 1095.84 383.645L1095.82 383.565C1095.62 382.481 1094.76 381.951 1094.22 381.683C1093.68 381.416 1092.95 381.175 1092.19 380.922L1091.61 380.73L1091.86 379.977C1092.24 378.819 1092.58 377.794 1092.73 377.005C1092.86 376.333 1093.04 374.913 1091.84 374.062ZM1089.24 377.632C1088.8 377.935 1088.36 378.241 1087.92 378.551L1084.54 380.939L1083.88 381.403C1084.12 381.484 1084.41 381.581 1084.75 381.693L1084.81 381.715C1085.22 381.852 1085.66 381.997 1086.02 382.167C1086.43 382.363 1086.94 382.689 1087.27 383.298L1087.28 383.311L1087.29 383.346C1087.62 383.973 1087.59 384.587 1087.5 385.044C1087.43 385.43 1087.29 385.865 1087.16 386.254L1087.06 386.559C1086.87 387.129 1086.71 387.603 1086.59 388.004C1086.95 387.757 1087.39 387.451 1087.91 387.084L1091.29 384.697C1091.54 384.524 1091.76 384.369 1091.94 384.233L1091.08 383.943L1091.02 383.921C1090.6 383.784 1090.17 383.639 1089.81 383.469C1089.28 383.237 1088.84 382.84 1088.56 382.338L1088.55 382.325L1088.53 382.29C1088.27 381.764 1088.2 381.165 1088.33 380.592C1088.42 380.182 1088.53 379.778 1088.67 379.382L1088.77 379.077C1088.96 378.507 1089.12 378.033 1089.24 377.632" fill="url(#paint27_linear_90_376)"/>
<path fill-rule="evenodd" clip-rule="evenodd" d="M95.3282 189.626C89.7323 187.771 83.7428 190.754 81.9233 196.242C81.6116 197.182 81.4423 198.135 81.4018 199.075C82.316 199.703 83.1185 200.457 83.7843 201.31C83.9248 201.475 84.0305 201.667 84.0952 201.873C84.1599 202.08 84.1822 202.298 84.1607 202.513C84.1393 202.728 84.0745 202.937 83.9703 203.127C83.8661 203.317 83.7247 203.484 83.5544 203.618C83.3842 203.752 83.1887 203.85 82.9796 203.906C82.7705 203.962 82.5522 203.976 82.3378 203.946C82.1233 203.916 81.9172 203.843 81.7316 203.731C81.5461 203.62 81.3851 203.472 81.2581 203.296C80.3323 202.117 79.0777 201.238 77.6529 200.771C73.6625 199.448 69.3983 201.58 68.1057 205.479C66.8131 209.377 68.9595 213.633 72.9499 214.956C73.3547 215.09 73.6896 215.379 73.8809 215.76C74.0722 216.142 74.1043 216.583 73.9701 216.988C73.8359 217.393 73.5464 217.728 73.1653 217.919C72.7842 218.11 72.3427 218.142 71.9379 218.008C66.2952 216.137 63.1907 210.085 65.0534 204.467C66.8783 198.962 72.7701 195.974 78.3128 197.608C78.4278 196.8 78.6146 196.004 78.871 195.23C81.2599 188.024 89.092 184.17 96.3402 186.574C102.766 188.704 106.621 195.05 105.75 201.485C109.771 205.025 111.54 210.718 109.756 216.098C107.682 222.354 101.505 226.081 95.1738 225.386C94.7498 225.34 94.3617 225.127 94.0948 224.794C93.8279 224.462 93.7041 224.036 93.7507 223.613C93.7972 223.189 94.0102 222.8 94.3429 222.534C94.6755 222.267 95.1006 222.143 95.5245 222.189C100.407 222.724 105.125 219.848 106.704 215.086C108.145 210.738 106.548 206.086 103.034 203.417C102.09 202.699 101.033 202.143 99.9069 201.77C98.7206 201.377 97.5197 201.205 96.3442 201.222C95.9234 201.22 95.5201 201.053 95.2209 200.757C94.9217 200.461 94.7504 200.06 94.7439 199.639C94.7373 199.218 94.896 198.811 95.1859 198.506C95.4758 198.201 95.8737 198.022 96.2943 198.007C98.4964 197.971 100.676 198.457 102.654 199.426C102.59 197.237 101.853 195.121 100.542 193.367C99.2306 191.613 97.4099 190.306 95.3282 189.626Z" fill="url(#paint28_linear_90_376)"/>
<path fill-rule="evenodd" clip-rule="evenodd" d="M87.8406 212.062C86.6705 211.232 85.3976 211.815 84.7859 212.134L82.159 213.858L82.0696 213.923L78.6811 216.309L78.5971 216.372L76.9152 217.664C76.4705 218.086 75.8108 218.87 75.9882 219.99L76.0025 220.069C76.2077 221.154 77.0621 221.683 77.6055 221.952C78.1449 222.218 78.8714 222.459 79.6344 222.712L80.2144 222.905L79.9648 223.657C79.5809 224.815 79.2409 225.841 79.0923 226.63C78.9666 227.302 78.7872 228.721 79.9845 229.572C81.1546 230.403 82.4275 229.82 83.0391 229.501C83.7592 229.121 84.6496 228.492 85.666 227.777L89.1439 225.325L89.2279 225.263L89.3457 225.18C89.9403 224.763 90.5064 224.356 90.9098 223.971C91.3545 223.549 92.0142 222.765 91.8369 221.645L91.8225 221.565C91.6174 220.481 90.763 219.951 90.2195 219.683C89.6801 219.416 88.9537 219.175 88.1906 218.922L87.6107 218.73L87.8603 217.977C88.2442 216.819 88.5842 215.794 88.7327 215.005C88.8584 214.333 89.0378 212.913 87.8406 212.062ZM85.241 215.632C84.7981 215.935 84.3577 216.241 83.9199 216.551L80.5374 218.939L79.8847 219.403C80.1212 219.484 80.4083 219.581 80.7461 219.693L80.8133 219.715C81.2243 219.852 81.6638 219.997 82.0187 220.167C82.4278 220.363 82.9388 220.689 83.2699 221.298L83.2767 221.311L83.2944 221.346C83.6174 221.973 83.5879 222.587 83.5039 223.044C83.4327 223.43 83.2883 223.865 83.1595 224.254L83.0583 224.559C82.8694 225.129 82.7122 225.603 82.586 226.004C82.9524 225.757 83.3858 225.451 83.9072 225.084L87.2917 222.697C87.5386 222.524 87.7562 222.369 87.9444 222.233L87.083 221.943L87.0158 221.921C86.6048 221.784 86.1653 221.639 85.8104 221.469C85.2825 221.237 84.8437 220.84 84.5592 220.338L84.5524 220.325L84.5347 220.29C84.2732 219.764 84.1993 219.165 84.3252 218.592C84.4162 218.182 84.5313 217.778 84.6696 217.382L84.7708 217.077C84.9597 216.507 85.1169 216.033 85.2431 215.632" fill="url(#paint29_linear_90_376)"/>
<defs>
<linearGradient id="paint0_linear_90_376" x1="1119.14" y1="111.569" x2="1112.35" y2="138.423" gradientUnits="userSpaceOnUse">
<stop stop-color="#E7EB32"/>
<stop offset="1" stop-color="#58C03F"/>
</linearGradient>
<linearGradient id="paint1_linear_90_376" x1="1125" y1="91" x2="1129" y2="162.5" gradientUnits="userSpaceOnUse">
<stop stop-color="#E7EB32"/>
<stop offset="1" stop-color="#58C03F"/>
</linearGradient>
<linearGradient id="paint2_linear_90_376" x1="260.143" y1="552.569" x2="253.346" y2="579.423" gradientUnits="userSpaceOnUse">
<stop stop-color="#E7EB32"/>
<stop offset="1" stop-color="#58C03F"/>
</linearGradient>
<linearGradient id="paint3_linear_90_376" x1="266" y1="532" x2="270" y2="603.5" gradientUnits="userSpaceOnUse">
<stop stop-color="#E7EB32"/>
<stop offset="1" stop-color="#58C03F"/>
</linearGradient>
<linearGradient id="paint4_linear_90_376" x1="318.667" y1="137.113" x2="311.831" y2="195.536" gradientUnits="userSpaceOnUse">
<stop stop-color="#D818DC"/>
<stop offset="1" stop-color="#541D99"/>
</linearGradient>
<linearGradient id="paint5_linear_90_376" x1="345.426" y1="134.288" x2="331.676" y2="182.454" gradientUnits="userSpaceOnUse">
<stop stop-color="#DD2FB7"/>
<stop offset="1" stop-color="#543FD3"/>
</linearGradient>
<linearGradient id="paint6_linear_90_376" x1="226" y1="335" x2="272" y2="368" gradientUnits="userSpaceOnUse">
<stop stop-color="#FF9649"/>
<stop offset="1" stop-color="#8D4510"/>
</linearGradient>
<linearGradient id="paint7_linear_90_376" x1="1111.67" y1="624.113" x2="1104.83" y2="682.536" gradientUnits="userSpaceOnUse">
<stop stop-color="#D818DC"/>
<stop offset="1" stop-color="#541D99"/>
</linearGradient>
<linearGradient id="paint8_linear_90_376" x1="1138.43" y1="621.288" x2="1124.68" y2="669.454" gradientUnits="userSpaceOnUse">
<stop stop-color="#DD2FB7"/>
<stop offset="1" stop-color="#543FD3"/>
</linearGradient>
<linearGradient id="paint9_linear_90_376" x1="1225" y1="201" x2="1271" y2="234" gradientUnits="userSpaceOnUse">
<stop stop-color="#FF9649"/>
<stop offset="1" stop-color="#8D4510"/>
</linearGradient>
<linearGradient id="paint10_linear_90_376" x1="1152.06" y1="510.633" x2="1147.62" y2="522.817" gradientUnits="userSpaceOnUse">
<stop stop-color="#FA6918"/>
<stop offset="1" stop-color="#E11818"/>
</linearGradient>
<linearGradient id="paint11_linear_90_376" x1="1158.89" y1="491.913" x2="1140.42" y2="542.523" gradientUnits="userSpaceOnUse">
<stop stop-color="#FA6918"/>
<stop offset="1" stop-color="#E21616"/>
</linearGradient>
<linearGradient id="paint12_linear_90_376" x1="1150.9" y1="513.818" x2="1140.94" y2="541.098" gradientUnits="userSpaceOnUse">
<stop stop-color="#FA6918"/>
<stop offset="1" stop-color="#E11818"/>
</linearGradient>
<linearGradient id="paint13_linear_90_376" x1="1150.22" y1="515.689" x2="1148.66" y2="519.97" gradientUnits="userSpaceOnUse">
<stop stop-color="#FA6918"/>
<stop offset="1" stop-color="#E11818"/>
</linearGradient>
<linearGradient id="paint14_linear_90_376" x1="1143.81" y1="522.488" x2="1142.77" y2="525.339" gradientUnits="userSpaceOnUse">
<stop stop-color="#FA6918"/>
<stop offset="1" stop-color="#E11818"/>
</linearGradient>
<linearGradient id="paint15_linear_90_376" x1="1150.74" y1="525.014" x2="1149.7" y2="527.865" gradientUnits="userSpaceOnUse">
<stop stop-color="#FA6918"/>
<stop offset="1" stop-color="#E11818"/>
</linearGradient>
<linearGradient id="paint16_linear_90_376" x1="1148.14" y1="521.391" x2="1146.5" y2="525.888" gradientUnits="userSpaceOnUse">
<stop stop-color="#FA6918"/>
<stop offset="1" stop-color="#E11818"/>
</linearGradient>
<linearGradient id="paint17_linear_90_376" x1="1144.24" y1="532.081" x2="1143.13" y2="535.102" gradientUnits="userSpaceOnUse">
<stop stop-color="#FA6918"/>
<stop offset="1" stop-color="#E11818"/>
</linearGradient>
<linearGradient id="paint18_linear_90_376" x1="131.062" y1="684.633" x2="126.616" y2="696.817" gradientUnits="userSpaceOnUse">
<stop stop-color="#FA6918"/>
<stop offset="1" stop-color="#E11818"/>
</linearGradient>
<linearGradient id="paint19_linear_90_376" x1="137.893" y1="665.913" x2="119.424" y2="716.523" gradientUnits="userSpaceOnUse">
<stop stop-color="#FA6918"/>
<stop offset="1" stop-color="#E21616"/>
</linearGradient>
<linearGradient id="paint20_linear_90_376" x1="129.9" y1="687.818" x2="119.944" y2="715.098" gradientUnits="userSpaceOnUse">
<stop stop-color="#FA6918"/>
<stop offset="1" stop-color="#E11818"/>
</linearGradient>
<linearGradient id="paint21_linear_90_376" x1="129.217" y1="689.689" x2="127.655" y2="693.97" gradientUnits="userSpaceOnUse">
<stop stop-color="#FA6918"/>
<stop offset="1" stop-color="#E11818"/>
</linearGradient>
<linearGradient id="paint22_linear_90_376" x1="122.814" y1="696.488" x2="121.773" y2="699.339" gradientUnits="userSpaceOnUse">
<stop stop-color="#FA6918"/>
<stop offset="1" stop-color="#E11818"/>
</linearGradient>
<linearGradient id="paint23_linear_90_376" x1="129.736" y1="699.014" x2="128.696" y2="701.865" gradientUnits="userSpaceOnUse">
<stop stop-color="#FA6918"/>
<stop offset="1" stop-color="#E11818"/>
</linearGradient>
<linearGradient id="paint24_linear_90_376" x1="127.136" y1="695.391" x2="125.495" y2="699.888" gradientUnits="userSpaceOnUse">
<stop stop-color="#FA6918"/>
<stop offset="1" stop-color="#E11818"/>
</linearGradient>
<linearGradient id="paint25_linear_90_376" x1="123.235" y1="706.081" x2="122.133" y2="709.102" gradientUnits="userSpaceOnUse">
<stop stop-color="#FA6918"/>
<stop offset="1" stop-color="#E11818"/>
</linearGradient>
<linearGradient id="paint26_linear_90_376" x1="1099.37" y1="348.252" x2="1087.57" y2="383.863" gradientUnits="userSpaceOnUse">
<stop stop-color="#F5F045"/>
<stop offset="1" stop-color="#B1621C"/>
</linearGradient>
<linearGradient id="paint27_linear_90_376" x1="1090.95" y1="373.657" x2="1084.88" y2="391.978" gradientUnits="userSpaceOnUse">
<stop stop-color="#F5F045"/>
<stop offset="1" stop-color="#B1621C"/>
</linearGradient>
<linearGradient id="paint28_linear_90_376" x1="95.3716" y1="186.252" x2="83.5653" y2="221.863" gradientUnits="userSpaceOnUse">
<stop stop-color="#F5F045"/>
<stop offset="1" stop-color="#B1621C"/>
</linearGradient>
<linearGradient id="paint29_linear_90_376" x1="86.9495" y1="211.657" x2="80.8755" y2="229.978" gradientUnits="userSpaceOnUse">
<stop stop-color="#F5F045"/>
<stop offset="1" stop-color="#B1621C"/>
</linearGradient>
</defs>
</svg>
